<svg width="31" height="31" viewBox="0 0 31 31" fill="none" xmlns="http://www.w3.org/2000/svg">
<path d="M19.375 11.6251H21.9583V14.2084H19.375V11.6251ZM21.9583 6.45841H19.375V9.04175H21.9583V6.45841ZM14.2083 19.3751H16.7917V16.7917H14.2083V19.3751ZM16.7917 6.45841H14.2083V9.04175H16.7917V6.45841ZM14.2083 14.2084H16.7917V11.6251H14.2083V14.2084ZM11.625 6.45841H9.04167V9.04175H11.625V6.45841ZM11.625 11.6251H9.04167V14.2084H11.625V11.6251ZM18.7938 27.1251H16.7917V22.6042H14.2083V27.1251H6.45833V3.87508H24.5417V14.2472C25.4588 14.3247 26.3371 14.6088 27.125 15.0222V1.29175H3.875V29.7084H20.5504C20.0208 28.9851 19.375 28.1067 18.7938 27.1251ZM9.04167 24.5417H11.625V21.9584H9.04167V24.5417ZM11.625 16.7917H9.04167V19.3751H11.625V16.7917ZM28.4167 21.3126C28.4167 24.6709 23.8958 29.7084 23.8958 29.7084C23.8958 29.7084 19.375 24.6709 19.375 21.3126C19.375 18.8584 21.4417 16.7917 23.8958 16.7917C26.35 16.7917 28.4167 18.8584 28.4167 21.3126ZM25.4458 21.4417C25.4458 20.6667 24.6708 19.8917 23.8958 19.8917C23.1208 19.8917 22.3458 20.5376 22.3458 21.4417C22.3458 22.2167 22.9917 22.9917 23.8958 22.9917C24.8 22.9917 25.575 22.2167 25.4458 21.4417Z" fill="#3275C8" fill-opacity="0.97"/>
</svg>
