<svg width="31" height="31" viewBox="0 0 31 31" fill="none" xmlns="http://www.w3.org/2000/svg">
<path d="M10.4513 10.4513V14.6244H14.6244V10.4513H10.4513ZM16.4129 10.4513V14.6244H20.5859V10.4513H16.4129ZM22.3744 10.4513V14.6244H26.5475V10.4513H22.3744ZM22.3744 16.4129V20.5859H26.5475V16.4129H22.3744ZM16.4129 16.4129V20.5859H20.5859V16.4129H16.4129ZM16.4129 22.3744V26.5475H20.5859V22.3744H16.4129ZM10.4513 22.3744V26.5475H14.6244V22.3744H10.4513ZM10.4513 16.4129V20.5859H14.6244V16.4129H10.4513ZM4.48978 22.3744V26.5475H8.66286V22.3744H4.48978ZM4.48978 16.4129V20.5859H8.66286V16.4129H4.48978ZM9.53846 4.60156V0.763822C9.53846 0.565104 9.47947 0.388121 9.36148 0.232873C9.24349 0.0776242 9.10377 0 8.94231 0H7.75C7.58854 0 7.44882 0.0776242 7.33083 0.232873C7.21284 0.388121 7.15385 0.565104 7.15385 0.763822V4.60156C7.15385 4.8127 7.21284 4.98968 7.33083 5.13251C7.44882 5.27534 7.58854 5.35296 7.75 5.36538H8.94231C9.11619 5.35296 9.25901 5.27534 9.37079 5.13251C9.48257 4.98968 9.53846 4.8127 9.53846 4.60156ZM2.38462 31H28.6154C29.2612 31 29.8139 30.7764 30.2734 30.3293C30.733 29.8822 30.9752 29.3357 31 28.6899V4.69471C31 4.0613 30.764 3.51793 30.2921 3.0646C29.8201 2.61128 29.2612 2.38462 28.6154 2.38462H25.0385V4.17308C25.0385 4.95553 24.9081 5.54858 24.6472 5.95222C24.3864 6.35587 23.9207 6.55769 23.25 6.55769H22.0577C20.8654 6.54527 20.2692 5.75661 20.2692 4.19171V2.38462H10.7308V4.19171C10.7308 5.75661 10.1346 6.54527 8.94231 6.55769H7.75C7.07933 6.55769 6.61358 6.35587 6.35276 5.95222C6.09195 5.54858 5.96154 4.95553 5.96154 4.17308V2.38462H2.38462C1.73878 2.38462 1.17989 2.61128 0.707933 3.0646C0.235978 3.51793 0 4.0613 0 4.69471V28.6899C0 29.3233 0.232873 29.8636 0.698618 30.3107C1.16436 30.7578 1.72636 30.9876 2.38462 31ZM2.38462 8.34615H28.6154V28.6154H2.38462V8.34615ZM23.8462 4.60156V0.763822C23.8462 0.565104 23.7872 0.388121 23.6692 0.232873C23.5512 0.0776242 23.4115 0 23.25 0H22.0577C21.8962 0 21.7565 0.0776242 21.6385 0.232873C21.5205 0.388121 21.4615 0.565104 21.4615 0.763822V4.60156C21.4615 4.8127 21.5205 4.98968 21.6385 5.13251C21.7565 5.27534 21.8962 5.35296 22.0577 5.36538H23.25C23.4239 5.35296 23.5667 5.27534 23.6785 5.13251C23.7903 4.98968 23.8462 4.8127 23.8462 4.60156Z" fill="#3275C8" fill-opacity="0.97"/>
</svg>
