<svg width="27" height="27" viewBox="0 0 27 27" fill="none" xmlns="http://www.w3.org/2000/svg">
<path d="M13.5 12.375C14.432 12.375 15.1875 11.6195 15.1875 10.6875C15.1875 9.75552 14.432 9 13.5 9C12.568 9 11.8125 9.75552 11.8125 10.6875C11.8125 11.6195 12.568 12.375 13.5 12.375Z" fill="white"/>
<path d="M13.5 2.25C11.1286 2.24988 8.85291 3.18573 7.16765 4.85414C5.48238 6.52255 4.52371 8.78868 4.5 11.16C4.5 17.325 12.4312 24.1875 12.7687 24.48C12.9725 24.6543 13.2318 24.7501 13.5 24.7501C13.7681 24.7501 14.0275 24.6543 14.2312 24.48C14.625 24.1875 22.5 17.325 22.5 11.16C22.4763 8.78868 21.5176 6.52255 19.8323 4.85414C18.1471 3.18573 15.8714 2.24988 13.5 2.25ZM13.5 14.625C12.7212 14.625 11.96 14.3941 11.3124 13.9614C10.6649 13.5288 10.1602 12.9138 9.86222 12.1943C9.5642 11.4748 9.48622 10.6831 9.63815 9.91933C9.79008 9.15553 10.1651 8.45394 10.7158 7.90327C11.2664 7.3526 11.968 6.97759 12.7318 6.82566C13.4956 6.67373 14.2873 6.75171 15.0068 7.04973C15.7263 7.34775 16.3412 7.85243 16.7739 8.49994C17.2066 9.14746 17.4375 9.90874 17.4375 10.6875C17.4375 11.7318 17.0226 12.7333 16.2842 13.4717C15.5458 14.2102 14.5443 14.625 13.5 14.625Z" fill="white"/>
</svg>
