<svg width="25" height="25" viewBox="0 0 25 25" fill="none" xmlns="http://www.w3.org/2000/svg">
<path d="M17.6945 8.39822C16.965 7.93906 16.3639 7.30244 15.9474 6.54787C15.5308 5.7933 15.3124 4.94542 15.3125 4.0835H2.66782C2.54569 4.08538 2.42437 4.10369 2.30713 4.13794L12.1412 13.9311L17.6945 8.39822Z" fill="white"/>
<path d="M20.4167 9.18734C19.9561 9.18334 19.4983 9.11695 19.0556 8.98998L13.1279 14.8972C12.8729 15.1507 12.5279 15.293 12.1683 15.293C11.8088 15.293 11.4638 15.1507 11.2088 14.8972L1.36112 5.104C1.33093 5.21496 1.31492 5.3293 1.31348 5.44428V19.0554C1.31348 19.4164 1.45688 19.7626 1.71214 20.0179C1.96739 20.2731 2.3136 20.4165 2.67459 20.4165H21.7301C22.0911 20.4165 22.4373 20.2731 22.6926 20.0179C22.9479 19.7626 23.0913 19.4164 23.0913 19.0554V8.43192C22.2875 8.92793 21.3612 9.18957 20.4167 9.18734ZM3.60695 19.0554H2.66098V18.0822L7.60862 13.1754L8.5682 14.135L3.60695 19.0554ZM21.7165 19.0554H20.7638L15.8025 14.135L16.7621 13.1754L21.7097 18.0822L21.7165 19.0554Z" fill="white"/>
<path d="M20.4164 7.48622C22.2958 7.48622 23.8192 5.96274 23.8192 4.08344C23.8192 2.20414 22.2958 0.680664 20.4164 0.680664C18.5371 0.680664 17.0137 2.20414 17.0137 4.08344C17.0137 5.96274 18.5371 7.48622 20.4164 7.48622Z" fill="white"/>
</svg>
